<svg width="207" height="80" viewBox="0 0 207 80" fill="none" xmlns="http://www.w3.org/2000/svg">
<rect width="25.6" height="25.6" fill="#A8DADC"/>
<rect y="28.8" width="25.6" height="51.2" fill="#1D3557"/>
<rect x="30.1715" y="54.4" width="25.6" height="25.6" fill="#F3722C"/>
<rect x="30.1715" width="25.6" height="51.2" fill="#1D3557"/>
<path d="M93.4 32.2V49H90.208L81.832 38.8V49H77.992V32.2H81.208L89.56 42.4V32.2H93.4ZM109.759 42.592C109.759 42.64 109.735 42.976 109.687 43.6H99.9188C100.095 44.4 100.511 45.032 101.167 45.496C101.823 45.96 102.639 46.192 103.615 46.192C104.287 46.192 104.879 46.096 105.391 45.904C105.919 45.696 106.407 45.376 106.855 44.944L108.847 47.104C107.631 48.496 105.855 49.192 103.519 49.192C102.063 49.192 100.775 48.912 99.6548 48.352C98.5348 47.776 97.6708 46.984 97.0628 45.976C96.4548 44.968 96.1508 43.824 96.1508 42.544C96.1508 41.28 96.4468 40.144 97.0388 39.136C97.6468 38.112 98.4708 37.32 99.5108 36.76C100.567 36.184 101.743 35.896 103.039 35.896C104.303 35.896 105.447 36.168 106.471 36.712C107.495 37.256 108.295 38.04 108.871 39.064C109.463 40.072 109.759 41.248 109.759 42.592ZM103.063 38.728C102.215 38.728 101.503 38.968 100.927 39.448C100.351 39.928 99.9988 40.584 99.8708 41.416H106.231C106.103 40.6 105.751 39.952 105.175 39.472C104.599 38.976 103.895 38.728 103.063 38.728ZM120.108 49L117.276 45.04L114.348 49H110.268L115.236 42.496L110.436 36.088H114.636L117.372 39.856L120.18 36.088H124.164L119.364 42.4L124.356 49H120.108ZM134.501 48.376C134.133 48.648 133.677 48.856 133.133 49C132.605 49.128 132.045 49.192 131.453 49.192C129.917 49.192 128.725 48.8 127.877 48.016C127.045 47.232 126.629 46.08 126.629 44.56V39.256H124.637V36.376H126.629V33.232H130.373V36.376H133.589V39.256H130.373V44.512C130.373 45.056 130.509 45.48 130.781 45.784C131.069 46.072 131.469 46.216 131.981 46.216C132.573 46.216 133.077 46.056 133.493 45.736L134.501 48.376ZM140.347 35.368H134.971V32.2H149.611V35.368H144.235V49H140.347V35.368ZM154.734 37.792C155.182 37.168 155.782 36.696 156.534 36.376C157.302 36.056 158.182 35.896 159.174 35.896V39.352C158.758 39.32 158.478 39.304 158.334 39.304C157.262 39.304 156.422 39.608 155.814 40.216C155.206 40.808 154.902 41.704 154.902 42.904V49H151.158V36.088H154.734V37.792ZM174.502 36.088V49H170.95V47.464C170.454 48.024 169.862 48.456 169.174 48.76C168.486 49.048 167.742 49.192 166.942 49.192C165.246 49.192 163.902 48.704 162.91 47.728C161.918 46.752 161.422 45.304 161.422 43.384V36.088H165.166V42.832C165.166 44.912 166.038 45.952 167.782 45.952C168.678 45.952 169.398 45.664 169.942 45.088C170.486 44.496 170.758 43.624 170.758 42.472V36.088H174.502ZM184.21 49.192C182.834 49.192 181.594 48.912 180.49 48.352C179.402 47.776 178.546 46.984 177.922 45.976C177.314 44.968 177.01 43.824 177.01 42.544C177.01 41.264 177.314 40.12 177.922 39.112C178.546 38.104 179.402 37.32 180.49 36.76C181.594 36.184 182.834 35.896 184.21 35.896C185.57 35.896 186.754 36.184 187.762 36.76C188.786 37.32 189.53 38.128 189.994 39.184L187.09 40.744C186.418 39.56 185.45 38.968 184.186 38.968C183.21 38.968 182.402 39.288 181.762 39.928C181.122 40.568 180.802 41.44 180.802 42.544C180.802 43.648 181.122 44.52 181.762 45.16C182.402 45.8 183.21 46.12 184.186 46.12C185.466 46.12 186.434 45.528 187.09 44.344L189.994 45.928C189.53 46.952 188.786 47.752 187.762 48.328C186.754 48.904 185.57 49.192 184.21 49.192ZM197.6 43.936L195.8 45.712V49H192.056V31.192H195.8V41.272L201.272 36.088H205.736L200.36 41.56L206.216 49H201.68L197.6 43.936Z" fill="#1D3557"/>
</svg>
